# xmcd
#
# Track frame offsets: 
#        150
#        18497
#        35852
#        60827
#        80037
#        97980
#        113310
#        136612
#        157285
#        178467
#
# Disc length: 2616 seconds
#
# Revision: 0
# Processed by: cddbd v1.5.2PL0 Copyright (c) Steve Scherf et al.
# Submitted via: ExactAudioCopy v0.99pb4
#
DISCID=7d0a360a
DTITLE=Crossroad Jam - From Within
DYEAR=1994
DGENRE=Blues
TTITLE0=Let It Rain
TTITLE1=Going To Babylon
TTITLE2=Times Like These
TTITLE3=Mercedes Benz
TTITLE4=Lets Go Together
TTITLE5=Heart Of Darkness
TTITLE6=Sword Of Damocles
TTITLE7=Move Your Feet
TTITLE8=Shame
TTITLE9=Bitte Drive Me Wild
EXTD=
EXTT0=
EXTT1=
EXTT2=
EXTT3=
EXTT4=
EXTT5=
EXTT6=
EXTT7=
EXTT8=
EXTT9=
PLAYORDER=
